# xmcd
#
# Track frame offsets:
#	150
#	12896
#	25974
#	38520
#	51561
#	63224
#	73958
#	85967
#	97331
#	109093
#	120192
#	130575
#	140707
#	153313
#	165568
#	176024
#	188760
#	199386
#	211178
#	225423
#
# Disc length: 3157 seconds
# Revision: 0
# Processed by: cddbd v1.5.2PL0 Copyright (c) Steve Scherf et al.
# Submitted via: dBpowerAMP V12.0
#
DISCID=140c5314
DTITLE=Various Artist - The Best of Country CD3
DYEAR=2015
DGENRE=Country
TTITLE0=Aching Breaking Heart - George Jones
TTITLE1=Keeps Right on a-Hurtin' - Johnny Tillotson
TTITLE2=Rowdy - Clint Eastwood
TTITLE3=Jambalaya on The Bayou - Hank Williams 
TTITLE4=Turn Around Look at me - Glen Campbell 
TTITLE5=In The Jailhouse Now - Johnny Cash
TTITLE6=Success - Loretta Lynn
TTITLE7=Maybellene - Marty Robbins
TTITLE8=Silver Threads And Golden Needles - Wanda Jackson
TTITLE9=I'm an Old Old Man Tryin' to Live While I Can - Lefty Frizell 
TTITLE10=Live Fast Love Hard Die Young - Faron Young
TTITLE11=Black Cloud - Leroy Van Dyke
TTITLE12=Nigh Noon - Tex Ritter
TTITLE13=North Wind - Slim Whitman
TTITLE14=Juke Box Blues - June Carter Cash
TTITLE15=I Fall to Pieces - Patsy Cline
TTITLE16=Where Does a Broken Heart go - Jim Reeves
TTITLE17=Sixteen Tons - Tennessee Ernie Ford
TTITLE18=Pl 109 - Jimmy Dean
TTITLE19=Oh Lonesome me - Don Gibson
EXTD=
EXTT0=
EXTT1=
EXTT2=
EXTT3=
EXTT4=
EXTT5=
EXTT6=
EXTT7=
EXTT8=
EXTT9=
EXTT10=
EXTT11=
EXTT12=
EXTT13=
EXTT14=
EXTT15=
EXTT16=
EXTT17=
EXTT18=
EXTT19=
PLAYORDER=
